<?xml version="1.0" standalone="no"?>
<!DOCTYPE svg PUBLIC "-//W3C//DTD SVG 20010904//EN"
 "http://www.w3.org/TR/2001/REC-SVG-20010904/DTD/svg10.dtd">
<svg version="1.0" xmlns="http://www.w3.org/2000/svg"
 width="300.000000pt" height="160.000000pt" viewBox="0 0 300.000000 160.000000"
 preserveAspectRatio="xMidYMid meet">
<metadata>
Created by potrace 1.10, written by Peter Selinger 2001-2011
</metadata>
<g transform="translate(0.000000,160.000000) scale(0.100000,-0.100000)"
fill="#000000" stroke="none">
<path d="M1376 1541 c3 -34 0 -62 -6 -66 -9 -6 -14 21 -14 77 0 9 -4 15 -8 11
-5 -3 -8 -27 -7 -54 2 -27 -1 -53 -7 -58 -5 -5 -52 -14 -104 -20 -138 -17
-169 -21 -225 -31 -27 -5 -72 -12 -98 -15 -27 -4 -58 -8 -69 -10 -11 -3 -43
-7 -72 -10 -28 -4 -67 -10 -86 -14 l-35 -7 2 -55 c2 -53 67 -396 77 -406 3 -3
142 28 310 69 l306 75 2 -211 c3 -208 3 -211 25 -214 21 -3 22 1 25 90 4 124
-5 316 -15 301 -4 -6 -4 -19 -1 -30 6 -16 5 -16 -9 2 -37 47 42 79 418 169
151 37 231 52 236 45 3 -6 12 -41 18 -79 l13 -69 67 72 c61 65 194 212 294
325 l38 43 -78 38 c-155 76 -193 93 -205 89 -7 -3 6 -11 28 -20 21 -9 83 -37
137 -63 l98 -46 -33 -38 c-18 -21 -100 -110 -183 -199 l-150 -161 -11 47 c-7
26 -15 60 -18 75 -6 26 -10 28 -34 22 -15 -4 -135 -33 -267 -65 -737 -177
-999 -239 -1002 -237 -1 2 -18 86 -38 188 -19 101 -37 196 -41 212 -4 22 -2
27 13 27 10 0 177 23 371 52 l352 52 0 78 c0 43 -4 78 -9 78 -5 0 -7 -27 -5
-59z m-9 -653 c-3 -8 -6 -5 -6 6 -1 11 2 17 5 13 3 -3 4 -12 1 -19z m12 -85
c0 -32 -4 -65 -9 -73 -7 -10 -10 8 -10 58 0 39 4 72 9 72 5 0 9 -26 10 -57z
m-12 -170 c-3 -10 -5 -2 -5 17 0 19 2 27 5 18 2 -10 2 -26 0 -35z"/>
<path d="M1411 1584 c0 -11 3 -14 6 -6 3 7 2 16 -1 19 -3 4 -6 -2 -5 -13z"/>
<path d="M1532 1531 c0 -59 2 -68 16 -65 10 3 106 18 216 34 109 16 200 31
203 34 7 7 -7 66 -16 66 -4 0 -6 -13 -3 -30 2 -16 1 -30 -2 -30 -4 0 -80 -11
-169 -25 -89 -14 -177 -27 -194 -29 l-33 -5 0 60 c0 32 -4 59 -9 59 -5 0 -9
-31 -9 -69z"/>
<path d="M2080 1593 c0 -4 5 -15 10 -23 8 -13 10 -13 10 2 0 9 -4 20 -10 23
-5 3 -10 3 -10 -2z"/>
<path d="M710 1572 c0 -12 19 -26 26 -19 2 2 -2 10 -11 17 -9 8 -15 8 -15 2z"/>
<path d="M2172 1550 c0 -14 2 -19 5 -12 2 6 2 18 0 25 -3 6 -5 1 -5 -13z"/>
<path d="M283 1548 c-13 -6 -23 -14 -23 -19 0 -4 11 -2 25 4 14 7 25 15 25 20
0 8 1 9 -27 -5z"/>
<path d="M760 1550 c0 -5 5 -10 11 -10 5 0 7 5 4 10 -3 6 -8 10 -11 10 -2 0
-4 -4 -4 -10z"/>
<path d="M2208 1516 c-4 -22 -5 -42 -3 -45 3 -2 5 3 5 12 0 10 5 14 15 11 8
-4 15 -1 15 6 0 6 -4 9 -9 5 -5 -3 -11 7 -13 22 -3 25 -4 23 -10 -11z"/>
<path d="M365 1527 c-15 -12 -16 -15 -2 -20 9 -3 18 1 21 10 9 22 3 25 -19 10z"/>
<path d="M1491 1524 c0 -11 3 -14 6 -6 3 7 2 16 -1 19 -3 4 -6 -2 -5 -13z"/>
<path d="M2057 1521 c3 -12 9 -21 14 -21 14 0 11 16 -5 29 -12 10 -13 8 -9 -8z"/>
<path d="M2098 1498 c10 -24 17 -52 15 -63 -3 -20 -3 -20 6 0 5 11 5 27 0 37
-5 9 -9 28 -9 42 0 16 -6 26 -15 26 -12 0 -12 -7 3 -42z"/>
<path d="M670 1520 c0 -5 7 -7 15 -4 8 4 15 8 15 10 0 2 -7 4 -15 4 -8 0 -15
-4 -15 -10z"/>
<path d="M2262 1505 c0 -16 2 -22 5 -12 2 9 2 23 0 30 -3 6 -5 -1 -5 -18z"/>
<path d="M1984 1485 c8 -19 12 -35 9 -35 -3 0 -1 -6 5 -12 10 -12 28 -105 24
-120 -1 -5 3 -8 8 -8 13 0 13 7 0 50 -6 19 -11 58 -12 85 0 32 -3 43 -8 31 -6
-17 -8 -16 -18 12 -6 18 -14 32 -17 32 -3 0 1 -16 9 -35z"/>
<path d="M2168 1498 c-3 -15 -1 -25 3 -22 5 3 9 -5 10 -18 0 -13 3 -18 5 -11
3 6 1 26 -4 45 l-8 33 -6 -27z"/>
<path d="M258 1478 c-16 -18 -28 -36 -28 -40 0 -14 20 -9 26 7 4 8 18 16 33
16 17 1 20 3 9 6 -21 5 -23 14 -6 31 7 7 8 12 3 12 -6 0 -22 -15 -37 -32z"/>
<path d="M728 1498 c10 -13 10 -17 0 -21 -9 -4 -9 -6 -1 -6 20 -2 24 16 5 30
-15 13 -16 12 -4 -3z"/>
<path d="M580 1496 c0 -2 7 -7 16 -10 8 -3 12 -2 9 4 -6 10 -25 14 -25 6z"/>
<path d="M1930 1463 c-3 -23 -2 -39 3 -34 5 5 7 24 5 42 -3 33 -4 33 -8 -8z"/>
<path d="M1490 1476 c0 -9 5 -16 10 -16 6 0 10 4 10 9 0 6 -4 13 -10 16 -5 3
-10 -1 -10 -9z"/>
<path d="M2343 1465 c4 -36 13 -39 12 -5 0 17 -3 30 -8 30 -4 0 -6 -11 -4 -25z"/>
<path d="M387 1469 c-9 -6 -22 -7 -27 -4 -6 3 -10 0 -10 -8 0 -20 28 -29 48
-16 15 9 14 10 -3 5 -20 -6 -20 -6 -1 9 23 18 18 28 -7 14z"/>
<path d="M900 1470 c-9 -6 -10 -10 -3 -10 6 0 15 5 18 10 8 12 4 12 -15 0z"/>
<path d="M1726 1465 c4 -8 10 -15 15 -15 4 0 6 7 3 15 -4 8 -10 15 -15 15 -4
0 -6 -7 -3 -15z"/>
<path d="M1771 1464 c0 -11 3 -14 6 -6 3 7 2 16 -1 19 -3 4 -6 -2 -5 -13z"/>
<path d="M2232 1460 c0 -14 2 -19 5 -12 2 6 2 18 0 25 -3 6 -5 1 -5 -13z"/>
<path d="M1623 1412 c-1 -37 1 -51 7 -42 10 16 11 88 1 95 -4 2 -7 -22 -8 -53z"/>
<path d="M90 1450 c-9 -6 -10 -10 -3 -10 6 0 15 5 18 10 8 12 4 12 -15 0z"/>
<path d="M170 1444 c0 -8 -5 -14 -11 -14 -5 0 -7 -4 -4 -10 3 -5 13 -10 21
-10 11 0 13 6 9 20 -5 15 -3 18 9 14 9 -3 16 -2 16 3 0 5 -9 9 -20 10 -11 1
-20 -4 -20 -13z"/>
<path d="M846 1445 c-9 -26 -7 -32 5 -12 6 10 9 21 6 23 -2 3 -7 -2 -11 -11z"/>
<path d="M1877 1443 c3 -7 6 -13 8 -13 2 0 5 6 8 13 3 8 -1 14 -8 14 -7 0 -11
-6 -8 -14z"/>
<path d="M440 1434 c0 -8 5 -12 10 -9 6 3 10 10 10 16 0 5 -4 9 -10 9 -5 0
-10 -7 -10 -16z"/>
<path d="M1560 1439 c0 -5 5 -7 10 -4 6 3 10 8 10 11 0 2 -4 4 -10 4 -5 0 -10
-5 -10 -11z"/>
<path d="M115 1430 c-3 -5 1 -10 9 -10 9 0 16 5 16 10 0 6 -4 10 -9 10 -6 0
-13 -4 -16 -10z"/>
<path d="M1728 1434 c-4 -3 -2 -20 3 -37 5 -18 9 -33 9 -34 0 -1 -7 0 -15 3
-37 15 -63 -59 -31 -85 19 -16 86 -4 86 16 0 8 -4 11 -10 8 -5 -3 -7 0 -4 9 7
18 -14 126 -25 126 -4 0 -10 -3 -13 -6z m13 -100 c9 -11 9 -17 -1 -29 -14 -17
-35 -6 -42 23 -6 22 26 27 43 6z"/>
<path d="M296 1421 c-4 -7 -5 -15 -2 -18 9 -9 19 4 14 18 -4 11 -6 11 -12 0z"/>
<path d="M1662 1406 c1 -14 5 -23 9 -20 7 4 0 44 -7 44 -2 0 -3 -11 -2 -24z"/>
<path d="M2171 1414 c0 -11 3 -14 6 -6 3 7 2 16 -1 19 -3 4 -6 -2 -5 -13z"/>
<path d="M1358 1395 c2 -14 6 -25 8 -25 2 0 4 11 4 25 0 14 -4 25 -9 25 -4 0
-6 -11 -3 -25z"/>
<path d="M1432 1400 c0 -14 2 -19 5 -12 2 6 2 18 0 25 -3 6 -5 1 -5 -13z"/>
<path d="M2212 1395 c0 -16 2 -22 5 -12 2 9 2 23 0 30 -3 6 -5 -1 -5 -18z"/>
<path d="M2276 1404 c-3 -9 -2 -22 2 -31 6 -10 9 -5 9 16 0 35 -2 38 -11 15z"/>
<path d="M80 1400 c-8 -5 -11 -10 -6 -10 5 0 3 -8 -5 -17 -24 -31 -40 -63 -30
-63 14 0 41 29 41 44 0 21 30 41 59 39 23 -2 24 -2 6 6 -27 13 -47 13 -65 1z"/>
<path d="M240 1402 c0 -5 7 -13 16 -16 22 -8 24 -8 24 6 0 6 -3 8 -7 5 -3 -4
-12 -2 -20 4 -8 7 -13 8 -13 1z"/>
<path d="M363 1398 c-11 -12 -9 -17 12 -26 15 -7 25 -8 25 -2 0 6 -4 10 -9 10
-5 0 -11 7 -13 17 -3 14 -4 14 -15 1z"/>
<path d="M1308 1403 c7 -3 16 -2 19 1 4 3 -2 6 -13 5 -11 0 -14 -3 -6 -6z"/>
<path d="M2231 1394 c1 -10 5 -30 10 -44 7 -21 8 -18 5 13 -4 39 -17 66 -15
31z"/>
<path d="M1502 1375 c0 -16 2 -22 5 -12 2 9 2 23 0 30 -3 6 -5 -1 -5 -18z"/>
<path d="M518 1383 c-16 -2 -28 -7 -28 -11 0 -12 64 -6 68 6 2 7 0 11 -5 11
-4 -1 -20 -4 -35 -6z"/>
<path d="M1135 1356 c2 -22 10 -44 16 -50 9 -8 10 -6 4 9 -4 11 -11 34 -16 50
-8 27 -8 26 -4 -9z"/>
<path d="M1172 1370 c0 -14 2 -19 5 -12 2 6 2 18 0 25 -3 6 -5 1 -5 -13z"/>
<path d="M1880 1335 c-7 -30 -17 -55 -21 -55 -5 0 -11 17 -15 38 -4 20 -10 44
-15 52 -5 9 -6 3 -3 -16 4 -19 1 -34 -5 -38 -6 -4 -10 -22 -10 -39 1 -20 3
-24 6 -12 10 46 15 51 24 27 5 -13 7 -28 4 -33 -4 -5 1 -6 10 -3 8 4 20 26 26
50 6 24 17 44 24 44 14 0 29 29 20 38 -3 3 -5 0 -5 -8 0 -9 -3 -10 -13 -1 -11
9 -16 0 -27 -44z"/>
<path d="M1273 1335 c6 -25 12 -43 14 -41 6 6 -9 86 -17 86 -4 0 -3 -20 3 -45z"/>
<path d="M1301 1364 c0 -11 3 -14 6 -6 3 7 2 16 -1 19 -3 4 -6 -2 -5 -13z"/>
<path d="M1450 1370 c0 -6 7 -42 16 -81 10 -45 20 -69 30 -69 8 0 14 1 14 3
-10 54 -40 152 -48 155 -7 2 -12 -1 -12 -8z"/>
<path d="M2124 1337 c1 -40 3 -45 14 -30 6 9 12 22 12 27 0 6 -4 5 -9 -3 -7
-11 -11 -6 -14 20 -3 23 -4 19 -3 -14z"/>
<path d="M2192 1360 c0 -14 2 -19 5 -12 2 6 2 18 0 25 -3 6 -5 1 -5 -13z"/>
<path d="M596 1357 c3 -10 9 -15 12 -12 3 3 0 11 -7 18 -10 9 -11 8 -5 -6z"/>
<path d="M981 1353 c-2 -33 40 -316 48 -332 5 -8 7 1 6 22 -1 19 -4 38 -7 43
-3 5 -6 23 -7 39 -1 44 -38 254 -40 228z"/>
<path d="M1408 1365 c-8 -9 3 -55 14 -55 5 0 6 -4 3 -10 -3 -5 -1 -10 6 -10 7
0 10 -2 7 -5 -11 -12 -57 22 -61 45 -3 21 -4 20 -4 -5 0 -16 -3 -38 -7 -47
-19 -43 13 -89 50 -73 11 4 25 7 33 6 9 -2 12 5 8 21 -3 13 -11 49 -17 81 -11
53 -18 65 -32 52z m7 -95 c4 -6 11 -8 16 -5 5 4 4 -5 -3 -19 -12 -28 -23 -33
-33 -16 -4 6 -11 8 -16 4 -12 -7 -8 16 6 33 12 15 22 16 30 3z"/>
<path d="M343 1346 c-38 -14 -53 -26 -32 -26 20 0 69 23 69 33 0 4 -1 6 -2 6
-2 -1 -17 -7 -35 -13z"/>
<path d="M388 1341 c-16 -10 -24 -22 -19 -29 5 -8 15 -6 36 8 19 12 38 17 57
13 23 -5 27 -3 22 11 -8 21 -61 20 -96 -3z"/>
<path d="M516 1351 c-3 -5 3 -11 13 -14 14 -3 18 -1 14 9 -6 16 -19 18 -27 5z"/>
<path d="M907 1319 c3 -24 7 -46 9 -48 9 -10 3 65 -5 78 -6 10 -8 -1 -4 -30z"/>
<path d="M1111 1344 c0 -11 3 -14 6 -6 3 7 2 16 -1 19 -3 4 -6 -2 -5 -13z"/>
<path d="M1641 1343 c-6 -11 -11 -13 -11 -5 0 7 -5 10 -10 7 -9 -6 -7 -26 7
-77 2 -10 11 -18 18 -18 8 0 15 -13 17 -32 3 -29 28 -54 28 -28 0 6 -4 8 -10
5 -6 -3 -10 5 -10 18 0 14 -7 38 -15 53 -19 37 -19 53 0 60 16 7 21 34 5 34
-5 0 -14 -8 -19 -17z"/>
<path d="M1029 1333 c-13 -16 -12 -17 4 -4 9 7 17 15 17 17 0 8 -8 3 -21 -13z"/>
<path d="M586 1315 c13 -20 14 -25 3 -26 -8 0 -5 -4 6 -9 27 -12 43 -12 25 0
-8 5 -11 12 -7 16 8 8 -21 44 -35 44 -5 0 -1 -11 8 -25z"/>
<path d="M755 1315 c19 -108 35 -211 36 -234 0 -14 3 -20 6 -13 7 18 -27 254
-39 267 -5 5 -6 -3 -3 -20z"/>
<path d="M942 1320 c0 -14 2 -19 5 -12 2 6 2 18 0 25 -3 6 -5 1 -5 -13z"/>
<path d="M1234 1319 c-3 -6 -2 -15 3 -20 5 -5 9 -1 9 11 0 23 -2 24 -12 9z"/>
<path d="M1522 1318 c-13 -13 -16 -47 -4 -64 22 -32 75 -22 87 17 13 41 -52
78 -83 47z m56 -28 c2 -24 -2 -30 -17 -30 -34 0 -35 40 -1 53 8 3 15 6 15 6 1
1 2 -12 3 -29z"/>
<path d="M1965 1319 c-4 -6 -5 -13 -2 -15 2 -3 1 -21 -3 -40 -4 -19 -4 -34 1
-34 5 0 10 12 10 28 1 15 3 37 4 50 3 24 0 28 -10 11z"/>
<path d="M2202 1300 c0 -19 2 -27 5 -17 2 9 2 25 0 35 -3 9 -5 1 -5 -18z"/>
<path d="M862 1275 c0 -16 2 -22 5 -12 2 9 2 23 0 30 -3 6 -5 -1 -5 -18z"/>
<path d="M1985 1280 c3 -5 8 -10 11 -10 2 0 4 5 4 10 0 6 -5 10 -11 10 -5 0
-7 -4 -4 -10z"/>
<path d="M2037 1283 c-2 -5 0 -21 4 -38 7 -29 7 -28 6 8 -1 38 -3 43 -10 30z"/>
<path d="M1032 1260 c0 -14 2 -19 5 -12 2 6 2 18 0 25 -3 6 -5 1 -5 -13z"/>
<path d="M1068 1275 c-2 -3 2 -37 11 -75 11 -50 20 -69 29 -65 8 3 22 5 33 5
12 0 16 5 13 15 -4 9 -15 13 -28 11 -18 -3 -21 1 -22 28 -1 62 -18 99 -36 81z"/>
<path d="M1296 1273 c-4 -4 -13 -8 -19 -8 -17 0 -20 -10 -12 -55 9 -53 35 -55
32 -2 -3 48 15 54 26 8 6 -22 13 -33 22 -30 10 4 10 13 0 47 -12 40 -32 57
-49 40z"/>
<path d="M2132 1250 c0 -19 2 -27 5 -17 2 9 2 25 0 35 -3 9 -5 1 -5 -18z"/>
<path d="M38 1253 c6 -2 18 -2 25 0 6 3 1 5 -13 5 -14 0 -19 -2 -12 -5z"/>
<path d="M1132 1240 c0 -14 2 -19 5 -12 2 6 2 18 0 25 -3 6 -5 1 -5 -13z"/>
<path d="M1195 1253 c-11 -3 -26 -10 -32 -15 -33 -27 6 -99 44 -83 10 5 24 7
32 6 11 -2 12 6 8 36 -4 21 -7 44 -7 51 0 12 -10 13 -45 5z m29 -20 c-6 -2 -9
-15 -6 -28 3 -20 0 -25 -17 -25 -16 0 -21 6 -21 28 0 23 4 27 28 28 15 1 22 0
16 -3z"/>
<path d="M1995 1250 c3 -5 8 -10 11 -10 2 0 4 5 4 10 0 6 -5 10 -11 10 -5 0
-7 -4 -4 -10z"/>
<path d="M50 1229 c0 -5 9 -9 20 -9 11 0 20 4 20 8 0 4 -9 8 -20 9 -11 1 -20
-2 -20 -8z"/>
<path d="M1634 1198 c0 -27 4 -48 9 -48 8 0 7 24 -3 65 -7 25 -8 23 -6 -17z"/>
<path d="M1866 1224 c-8 -22 -4 -25 11 -9 7 8 9 16 4 19 -5 3 -12 -1 -15 -10z"/>
<path d="M921 1214 c0 -11 3 -14 6 -6 3 7 2 16 -1 19 -3 4 -6 -2 -5 -13z"/>
<path d="M1793 1215 c-9 -25 4 -29 17 -6 7 15 7 21 0 21 -6 0 -13 -7 -17 -15z"/>
<path d="M1586 1212 c-3 -5 1 -9 9 -9 8 0 12 4 9 9 -3 4 -7 8 -9 8 -2 0 -6 -4
-9 -8z"/>
<path d="M25 1200 c4 -6 11 -8 16 -5 14 9 11 15 -7 15 -8 0 -12 -5 -9 -10z"/>
<path d="M115 1201 c-6 -5 -19 -11 -30 -13 -19 -4 -19 -4 1 -10 25 -7 48 5 43
21 -3 7 -8 8 -14 2z"/>
<path d="M230 1185 c-10 -13 -9 -15 9 -15 11 0 21 4 21 9 0 18 -18 21 -30 6z"/>
<path d="M451 1187 c-9 -11 -5 -14 18 -15 22 0 28 3 24 14 -7 18 -27 18 -42 1z"/>
<path d="M500 1191 c0 -6 5 -11 11 -11 5 0 8 -4 4 -9 -3 -5 -1 -12 5 -16 5 -3
10 -1 10 5 0 6 5 8 11 4 7 -4 10 1 7 12 -3 20 -48 33 -48 15z"/>
<path d="M871 1143 c5 -32 13 -85 18 -118 l10 -60 -4 55 c-9 117 -18 180 -25
180 -3 0 -3 -26 1 -57z"/>
<path d="M316 1175 c4 -8 11 -15 16 -15 6 0 5 6 -2 15 -7 8 -14 15 -16 15 -2
0 -1 -7 2 -15z"/>
<path d="M1453 1155 c0 -22 2 -30 4 -17 2 12 2 30 0 40 -3 9 -5 -1 -4 -23z"/>
<path d="M1602 1165 c0 -16 2 -22 5 -12 2 9 2 23 0 30 -3 6 -5 -1 -5 -18z"/>
<path d="M2101 1174 c0 -11 3 -14 6 -6 3 7 2 16 -1 19 -3 4 -6 -2 -5 -13z"/>
<path d="M2225 1180 c-19 -7 -18 -8 5 -15 14 -4 27 -11 30 -15 3 -4 15 -10 28
-14 28 -9 30 9 2 24 -11 6 -20 7 -20 3 0 -4 -6 0 -12 9 -9 11 -20 13 -33 8z"/>
<path d="M1950 1160 c-11 -7 -5 -8 20 -4 43 8 51 14 19 14 -13 0 -31 -5 -39
-10z"/>
<path d="M0 1148 c0 -4 8 -8 18 -8 10 0 24 -6 31 -12 11 -11 11 -9 2 9 -10 20
-51 29 -51 11z"/>
<path d="M1300 1149 c0 -5 5 -7 10 -4 6 3 10 8 10 11 0 2 -4 4 -10 4 -5 0 -10
-5 -10 -11z"/>
<path d="M1388 1143 c-3 -13 -2 -23 3 -23 5 0 9 -7 9 -17 0 -9 3 -14 6 -11 3
3 1 21 -4 39 -7 31 -9 32 -14 12z"/>
<path d="M115 1139 c-19 -7 -19 -8 2 -8 12 -1 28 -4 37 -7 9 -3 16 -2 16 4 0
14 -32 20 -55 11z"/>
<path d="M190 1140 c0 -5 5 -10 11 -10 5 0 7 5 4 10 -3 6 -8 10 -11 10 -2 0
-4 -4 -4 -10z"/>
<path d="M932 1130 c0 -14 2 -19 5 -12 2 6 2 18 0 25 -3 6 -5 1 -5 -13z"/>
<path d="M951 1124 c0 -11 3 -14 6 -6 3 7 2 16 -1 19 -3 4 -6 -2 -5 -13z"/>
<path d="M1180 1129 c0 -5 5 -7 10 -4 6 3 10 8 10 11 0 2 -4 4 -10 4 -5 0 -10
-5 -10 -11z"/>
<path d="M1905 1129 c-9 -14 -2 -20 14 -10 8 6 9 11 3 15 -6 3 -14 1 -17 -5z"/>
<path d="M2530 1130 c-8 -5 -10 -10 -5 -10 6 0 17 5 25 10 8 5 11 10 5 10 -5
0 -17 -5 -25 -10z"/>
<path d="M1148 1118 c-2 -7 -1 -29 3 -48 6 -34 6 -33 8 13 1 46 -3 59 -11 35z"/>
<path d="M2325 1120 c3 -5 8 -10 11 -10 2 0 4 5 4 10 0 6 -5 10 -11 10 -5 0
-7 -4 -4 -10z"/>
<path d="M2350 1110 c0 -5 5 -10 10 -10 6 0 10 5 10 10 0 6 -4 10 -10 10 -5 0
-10 -4 -10 -10z"/>
<path d="M2385 1110 c3 -5 8 -10 11 -10 2 0 4 5 4 10 0 6 -5 10 -11 10 -5 0
-7 -4 -4 -10z"/>
<path d="M2470 1104 c0 -8 -4 -12 -10 -9 -5 3 -10 1 -10 -4 0 -14 17 -14 25
-1 3 6 15 10 26 10 11 0 17 5 14 10 -10 16 -45 12 -45 -6z"/>
<path d="M1193 1075 c0 -22 2 -30 4 -17 2 12 2 30 0 40 -3 9 -5 -1 -4 -23z"/>
<path d="M1926 1087 c5 -15 2 -17 -20 -11 -20 5 -26 2 -26 -10 0 -12 10 -16
46 -16 27 0 43 -4 39 -10 -4 -6 1 -7 11 -3 16 6 15 8 -4 16 -16 7 -20 16 -16
31 4 17 1 22 -15 22 -16 0 -20 -5 -15 -19z"/>
<path d="M1111 1084 c0 -11 3 -14 6 -6 3 7 2 16 -1 19 -3 4 -6 -2 -5 -13z"/>
<path d="M1305 1091 c-3 -5 -1 -12 5 -16 5 -3 10 1 10 9 0 18 -6 21 -15 7z"/>
<path d="M1822 1075 c11 -24 48 -36 48 -15 0 6 -4 10 -10 10 -5 0 -10 7 -10
15 0 8 -9 15 -20 15 -17 0 -18 -3 -8 -25z"/>
<path d="M2183 1093 c-22 -8 -14 -32 12 -39 14 -4 29 -4 32 0 4 3 -5 6 -18 6
-19 0 -21 2 -9 10 13 9 13 10 0 10 -13 0 -13 1 0 10 16 10 4 12 -17 3z"/>
<path d="M2325 1090 c-3 -5 -1 -10 4 -10 6 0 11 5 11 10 0 6 -2 10 -4 10 -3 0
-8 -4 -11 -10z"/>
<path d="M2565 1092 c-14 -10 -13 -54 2 -69 19 -21 35 -16 27 10 -5 12 -8 32
-9 45 0 23 -4 26 -20 14z"/>
<path d="M2270 1074 c0 -11 -6 -26 -12 -34 -11 -12 -10 -12 3 -2 8 6 24 9 36
6 11 -3 24 -1 27 5 4 6 2 11 -5 11 -7 0 -21 7 -31 17 -17 15 -18 15 -18 -3z"/>
<path d="M2363 1065 c-17 -19 -16 -25 2 -25 8 0 15 9 15 20 0 23 -1 24 -17 5z"/>
<path d="M355 1060 c3 -5 10 -10 16 -10 5 0 9 5 9 10 0 6 -7 10 -16 10 -8 0
-12 -4 -9 -10z"/>
<path d="M265 1050 c3 -5 11 -10 16 -10 6 0 7 5 4 10 -3 6 -11 10 -16 10 -6 0
-7 -4 -4 -10z"/>
<path d="M430 1050 c0 -5 7 -7 15 -4 8 4 15 8 15 10 0 2 -7 4 -15 4 -8 0 -15
-4 -15 -10z"/>
<path d="M942 1040 c0 -14 2 -19 5 -12 2 6 2 18 0 25 -3 6 -5 1 -5 -13z"/>
<path d="M1522 1047 c-1 -10 -6 -16 -11 -13 -9 6 -5 -73 4 -82 3 -3 0 -11 -6
-19 -8 -9 -8 -17 -1 -25 5 -7 10 -38 10 -68 0 -30 2 -61 4 -69 1 -7 -3 -16 -9
-18 -7 -3 -13 3 -13 13 0 9 -3 15 -6 11 -4 -3 -3 -14 1 -24 5 -10 7 -22 6 -28
-6 -24 12 -155 20 -149 5 3 9 43 9 89 0 84 0 84 28 88 26 4 26 4 4 12 -29 10
-32 24 -35 175 -1 69 -4 117 -5 107z"/>
<path d="M40 1040 c0 -5 5 -10 11 -10 5 0 7 5 4 10 -3 6 -8 10 -11 10 -2 0 -4
-4 -4 -10z"/>
<path d="M170 1041 c0 -5 -8 -11 -17 -13 -15 -3 -15 -5 3 -10 14 -3 25 1 33
13 9 15 8 19 -4 19 -8 0 -15 -4 -15 -9z"/>
<path d="M334 1038 c-3 -4 6 -8 20 -8 14 0 26 -3 26 -7 1 -22 22 -36 61 -40
24 -3 47 -9 50 -15 4 -7 9 -7 13 0 6 11 -63 36 -72 27 -6 -6 -32 21 -32 33 0
12 -59 21 -66 10z"/>
<path d="M802 1035 c-1 -11 3 -38 7 -60 l9 -40 0 35 c0 19 -4 46 -8 60 -6 20
-8 21 -8 5z"/>
<path d="M626 1031 c-4 -6 -2 -11 4 -11 6 0 9 -4 6 -9 -4 -5 3 -7 14 -4 20 5
29 33 10 33 -5 0 -10 -6 -10 -12 0 -10 -3 -9 -9 1 -6 9 -11 10 -15 2z"/>
<path d="M2087 1033 c-3 -5 1 -14 9 -21 12 -11 14 -9 14 8 0 20 -14 27 -23 13z"/>
<path d="M2312 1020 c-15 -25 -16 -50 -1 -50 6 0 9 6 6 13 -3 8 3 20 13 27 11
8 17 17 14 22 -8 13 -18 9 -32 -12z"/>
<path d="M2400 1031 c0 -5 7 -11 15 -15 9 -3 15 0 15 9 0 8 -7 15 -15 15 -8 0
-15 -4 -15 -9z"/>
<path d="M476 1017 c3 -10 9 -15 12 -12 3 3 0 11 -7 18 -10 9 -11 8 -5 -6z"/>
<path d="M535 1020 c3 -5 8 -10 11 -10 2 0 4 5 4 10 0 6 -5 10 -11 10 -5 0 -7
-4 -4 -10z"/>
<path d="M1461 1014 c0 -11 3 -14 6 -6 3 7 2 16 -1 19 -3 4 -6 -2 -5 -13z"/>
<path d="M0 1016 c0 -2 9 -6 20 -9 11 -3 18 -1 14 4 -5 9 -34 13 -34 5z"/>
<path d="M1955 1010 c3 -5 8 -10 11 -10 2 0 4 5 4 10 0 6 -5 10 -11 10 -5 0
-7 -4 -4 -10z"/>
<path d="M2132 1000 c-13 -11 -30 -16 -37 -13 -8 3 -15 2 -15 -1 0 -4 12 -11
26 -17 22 -8 30 -6 47 12 26 27 9 43 -21 19z"/>
<path d="M2375 1004 c22 -16 35 -18 35 -5 0 5 -12 11 -27 14 -26 5 -26 4 -8
-9z"/>
<path d="M220 999 c0 -5 9 -9 20 -9 11 0 20 2 20 4 0 2 -9 6 -20 9 -11 3 -20
1 -20 -4z"/>
<path d="M515 1000 c3 -5 8 -10 11 -10 2 0 4 5 4 10 0 6 -5 10 -11 10 -5 0 -7
-4 -4 -10z"/>
<path d="M149 983 c-13 -16 -12 -17 4 -4 16 13 21 21 13 21 -2 0 -10 -8 -17
-17z"/>
<path d="M2446 985 c-3 -8 -1 -15 4 -15 6 0 10 7 10 15 0 8 -2 15 -4 15 -2 0
-6 -7 -10 -15z"/>
<path d="M598 973 c6 -2 10 -9 7 -13 -3 -5 10 -8 30 -7 49 4 44 20 -7 23 -24
1 -37 0 -30 -3z"/>
<path d="M1410 960 c0 -5 5 -10 11 -10 5 0 7 5 4 10 -3 6 -8 10 -11 10 -2 0
-4 -4 -4 -10z"/>
<path d="M2030 966 c0 -11 60 -34 66 -25 3 5 -2 9 -10 9 -9 0 -16 5 -16 10 0
6 -9 10 -20 10 -11 0 -20 -2 -20 -4z"/>
<path d="M2194 962 c3 -6 14 -10 24 -10 9 0 26 -3 37 -7 15 -6 17 -5 10 3 -15
16 -80 29 -71 14z"/>
<path d="M2620 964 c0 -5 -12 -17 -27 -27 -22 -14 -24 -17 -8 -15 22 3 51 35
41 45 -3 4 -6 2 -6 -3z"/>
<path d="M1473 925 c0 -22 2 -30 4 -17 2 12 2 30 0 40 -3 9 -5 -1 -4 -23z"/>
<path d="M1992 955 c14 -14 -25 -34 -45 -23 -18 9 -18 8 -1 -17 17 -26 19 -26
31 -9 7 10 20 19 29 20 26 4 27 12 2 25 -12 6 -20 8 -16 4z"/>
<path d="M2375 950 c4 -6 11 -8 16 -5 14 9 11 15 -7 15 -8 0 -12 -5 -9 -10z"/>
<path d="M459 933 c-1 -5 -1 -11 0 -15 1 -8 -14 -12 -36 -9 -18 3 -16 -14 3
-30 13 -10 17 -10 24 2 5 8 14 15 20 15 5 1 13 2 17 3 4 0 -2 8 -13 16 -16 12
-17 14 -2 15 18 0 48 -25 48 -41 0 -18 48 -9 53 10 5 21 -14 34 -37 25 -8 -3
-17 -1 -21 5 -7 12 -54 15 -56 4z m101 -28 c0 -8 -4 -15 -9 -15 -13 0 -22 16
-14 24 11 11 23 6 23 -9z"/>
<path d="M590 925 c0 -8 6 -15 14 -15 8 0 16 7 20 15 4 10 -1 15 -14 15 -11 0
-20 -7 -20 -15z"/>
<path d="M349 911 l-24 -20 23 6 c12 3 22 10 22 15 0 6 7 8 15 4 8 -3 15 -1
15 4 0 16 -26 11 -51 -9z"/>
<path d="M2493 912 c0 -7 7 -12 15 -10 22 4 25 24 4 24 -10 0 -19 -6 -19 -14z"/>
<path d="M1420 889 c0 -19 5 -41 10 -49 7 -10 8 -1 4 30 -8 56 -14 64 -14 19z"/>
<path d="M985 900 c-7 -11 22 -26 32 -16 4 3 -1 6 -11 6 -9 0 -14 5 -11 10 3
6 4 10 1 10 -3 0 -8 -5 -11 -10z"/>
<path d="M2320 902 c0 -5 7 -13 16 -16 10 -4 14 -1 12 6 -5 15 -28 23 -28 10z"/>
<path d="M316 855 c-3 -8 -1 -15 4 -15 6 0 10 7 10 15 0 8 -2 15 -4 15 -2 0
-6 -7 -10 -15z"/>
<path d="M1600 855 c0 -12 37 -41 48 -37 8 2 3 11 -12 23 -24 19 -36 24 -36
14z"/>
<path d="M355 830 c-18 -19 -17 -20 8 -20 17 0 27 5 27 14 0 24 -16 27 -35 6z"/>
<path d="M564 841 c4 -6 14 -11 22 -11 8 0 14 -5 14 -11 0 -5 5 -7 11 -3 13 8
2 19 -30 29 -16 5 -21 4 -17 -4z"/>
<path d="M1477 843 c-4 -3 -7 -11 -7 -17 0 -6 5 -5 12 2 6 6 9 14 7 17 -3 3
-9 2 -12 -2z"/>
<path d="M2045 841 c-3 -5 -2 -12 3 -15 5 -3 9 1 9 9 0 17 -3 19 -12 6z"/>
<path d="M2720 841 c0 -5 7 -11 15 -15 8 -3 15 -1 15 3 0 5 -7 11 -15 15 -8 3
-15 1 -15 -3z"/>
<path d="M2660 830 c0 -5 5 -10 10 -10 6 0 10 5 10 10 0 6 -4 10 -10 10 -5 0
-10 -4 -10 -10z"/>
<path d="M1559 820 c-20 -13 -5 -22 21 -12 18 7 20 10 8 14 -8 4 -21 2 -29 -2z"/>
<path d="M1780 820 c-23 -7 -23 -8 -3 -9 12 -1 25 4 28 9 3 6 5 10 3 9 -2 -1
-14 -5 -28 -9z"/>
<path d="M960 787 c-36 -17 -151 -69 -257 -117 l-191 -87 186 -215 c138 -159
189 -212 195 -201 9 14 -32 63 -231 281 -46 50 -93 103 -103 116 -19 24 -19
24 6 29 17 3 29 -1 35 -12 8 -13 9 -12 10 7 0 13 4 20 10 17 5 -3 10 2 11 12
1 13 3 11 9 -7 8 -25 8 -24 9 5 1 23 3 27 11 15 6 -10 10 -11 10 -2 0 6 9 12
19 12 10 0 22 8 27 18 6 12 10 5 14 -28 7 -44 7 -44 8 -9 2 36 20 61 48 65 8
1 14 -3 15 -9 0 -7 5 -1 10 13 7 18 12 21 18 11 7 -10 9 -9 14 3 4 9 14 16 23
16 10 0 26 7 36 17 16 14 18 15 18 0 0 -9 5 -19 11 -23 9 -5 10 1 5 20 -6 23
-3 26 18 26 13 0 26 6 29 13 9 25 14 1 9 -43 -5 -43 -6 -43 -13 -15 -6 27 -7
26 -8 -13 -2 -69 21 -46 40 39 10 41 17 74 16 75 -1 1 -31 -13 -67 -29z"/>
<path d="M1720 810 c-23 -7 -23 -8 -3 -9 12 -1 25 4 28 9 3 6 5 10 3 9 -2 -1
-14 -5 -28 -9z"/>
<path d="M2635 809 c-8 -12 36 -22 47 -11 6 6 0 11 -17 14 -14 3 -28 2 -30 -3z"/>
<path d="M2760 809 c0 -12 40 -48 54 -49 5 0 -1 8 -12 19 -12 10 -19 20 -16
23 3 3 -2 8 -11 11 -8 4 -15 2 -15 -4z"/>
<path d="M406 794 c-9 -22 -7 -44 2 -44 5 0 9 14 10 30 1 33 -3 38 -12 14z"/>
<path d="M1970 800 c0 -5 7 -7 15 -4 8 4 15 8 15 10 0 2 -7 4 -15 4 -8 0 -15
-4 -15 -10z"/>
<path d="M1610 796 c0 -2 9 -6 20 -9 11 -3 20 -1 20 4 0 5 -9 9 -20 9 -11 0
-20 -2 -20 -4z"/>
<path d="M2555 790 c3 -5 -5 -10 -17 -12 -19 -3 -17 -5 9 -9 19 -3 30 -2 26 4
-4 6 2 8 13 5 10 -3 25 -7 33 -9 7 -2 16 2 19 10 3 8 0 11 -7 7 -6 -4 -16 -4
-23 0 -18 11 -59 14 -53 4z"/>
<path d="M1660 771 c0 -10 9 -21 20 -24 18 -5 18 -4 3 19 -19 29 -23 30 -23 5z"/>
<path d="M592 773 c-6 -2 -10 -9 -6 -14 8 -14 21 -11 28 6 6 15 1 17 -22 8z"/>
<path d="M1175 770 c-3 -5 1 -10 10 -10 9 0 13 5 10 10 -3 6 -8 10 -10 10 -2
0 -7 -4 -10 -10z"/>
<path d="M1245 770 c-6 -10 8 -15 30 -10 6 1 4 -4 -2 -11 -20 -20 -15 -31 7
-19 22 12 19 24 -10 40 -13 7 -21 7 -25 0z"/>
<path d="M474 747 c-4 -11 2 -24 17 -37 30 -25 36 -25 44 0 5 16 12 19 33 13
24 -5 25 -4 14 9 -11 13 -18 14 -43 4 -27 -9 -32 -8 -45 8 -12 17 -14 17 -20
3z"/>
<path d="M198 743 c6 -2 18 -2 25 0 6 3 1 5 -13 5 -14 0 -19 -2 -12 -5z"/>
<path d="M110 725 c-7 -8 -18 -15 -24 -15 -7 0 -21 -7 -32 -16 -18 -14 -18
-14 6 -3 14 7 26 12 28 11 10 -8 32 0 26 10 -7 11 30 8 69 -7 9 -4 17 -3 17 3
0 5 -11 13 -24 16 -13 3 -31 8 -38 11 -8 3 -21 -1 -28 -10z"/>
<path d="M266 727 c3 -10 9 -15 12 -12 3 3 0 11 -7 18 -10 9 -11 8 -5 -6z"/>
<path d="M366 732 c-10 -10 -6 -22 7 -22 6 1 26 7 42 14 l30 13 -37 1 c-20 0
-39 -3 -42 -6z"/>
<path d="M2800 731 c0 -6 5 -13 10 -16 6 -3 10 1 10 9 0 9 -4 16 -10 16 -5 0
-10 -4 -10 -9z"/>
<path d="M640 720 c0 -25 16 -44 25 -30 4 7 0 19 -9 28 -13 14 -16 14 -16 2z"/>
<path d="M1675 720 c3 -5 13 -10 21 -10 8 0 14 5 14 10 0 6 -9 10 -21 10 -11
0 -17 -4 -14 -10z"/>
<path d="M303 691 c-18 -9 -33 -22 -33 -28 0 -7 -7 -13 -15 -13 -8 0 -15 -4
-15 -10 0 -18 22 -10 57 20 18 17 38 30 43 30 6 0 10 5 10 10 0 13 -7 11 -47
-9z"/>
<path d="M1451 660 c0 -30 4 -62 9 -70 12 -19 12 14 1 80 l-8 45 -2 -55z"/>
<path d="M2551 701 c-10 -6 -9 -10 3 -14 8 -3 18 -2 21 3 8 13 -9 20 -24 11z"/>
<path d="M2639 695 c18 -8 36 -15 40 -15 13 1 -45 29 -59 29 -8 0 0 -6 19 -14z"/>
<path d="M932 670 c0 -19 2 -27 5 -17 2 9 2 25 0 35 -3 9 -5 1 -5 -18z"/>
<path d="M2909 684 c18 -8 40 -13 49 -9 8 3 21 0 28 -6 10 -8 14 -8 14 0 0 12
0 12 -40 17 -14 1 -38 5 -55 8 l-30 6 34 -16z"/>
<path d="M100 665 c-16 -19 -10 -19 26 0 25 13 26 15 8 15 -12 0 -27 -7 -34
-15z"/>
<path d="M843 610 c0 -41 2 -58 4 -37 2 20 2 54 0 75 -2 20 -4 3 -4 -38z"/>
<path d="M2855 670 c-3 -5 -1 -10 4 -10 6 0 11 5 11 10 0 6 -2 10 -4 10 -3 0
-8 -4 -11 -10z"/>
<path d="M1700 666 c0 -2 7 -7 16 -10 8 -3 12 -2 9 4 -6 10 -25 14 -25 6z"/>
<path d="M1000 649 c0 -6 6 -9 14 -6 7 3 19 0 25 -6 8 -8 11 -8 11 0 0 11 -22
23 -41 23 -5 0 -9 -5 -9 -11z"/>
<path d="M1660 650 c0 -6 7 -10 15 -10 8 0 15 2 15 4 0 2 -7 6 -15 10 -8 3
-15 1 -15 -4z"/>
<path d="M1066 628 c3 -13 11 -30 16 -38 7 -11 8 -9 4 8 -3 14 1 25 10 29 19
7 7 23 -17 23 -16 0 -19 -4 -13 -22z"/>
<path d="M1126 625 c4 -8 10 -12 15 -9 14 8 10 24 -6 24 -9 0 -12 -6 -9 -15z"/>
<path d="M1929 623 c6 -12 16 -25 21 -28 17 -11 11 5 -11 28 l-21 22 11 -22z"/>
<path d="M970 620 c0 -6 4 -9 9 -6 5 4 12 1 14 -4 3 -6 4 -5 3 2 -3 15 -26 23
-26 8z"/>
<path d="M1178 618 c5 -7 12 -26 15 -43 3 -26 4 -25 6 10 2 37 3 39 16 21 15
-20 15 -20 15 0 0 15 -8 20 -31 22 -25 2 -30 0 -21 -10z"/>
<path d="M47 603 c6 -15 13 -16 31 -4 10 6 7 10 -11 13 -18 4 -24 1 -20 -9z"/>
<path d="M1251 604 c0 -11 3 -14 6 -6 3 7 2 16 -1 19 -3 4 -6 -2 -5 -13z"/>
<path d="M1870 612 c0 -5 -10 -14 -22 -20 -13 -6 -18 -11 -12 -11 7 -1 22 8
35 19 13 10 18 19 12 20 -7 0 -13 -4 -13 -8z"/>
<path d="M225 600 c3 -5 -1 -11 -9 -11 -32 -3 -36 -4 -37 -14 0 -17 30 -18 46
-1 17 17 20 36 4 36 -5 0 -7 -4 -4 -10z"/>
<path d="M1270 600 c0 -13 33 -21 44 -10 6 6 6 10 1 11 -6 0 -18 2 -27 4 -10
2 -18 0 -18 -5z"/>
<path d="M1416 555 c3 -33 5 -67 5 -76 0 -9 7 -16 15 -16 9 0 13 6 9 16 -3 8
-9 36 -12 61 -9 70 -22 82 -17 15z"/>
<path d="M2955 600 c3 -5 11 -10 16 -10 6 0 7 5 4 10 -3 6 -11 10 -16 10 -6 0
-7 -4 -4 -10z"/>
<path d="M0 590 c0 -5 4 -10 9 -10 6 0 13 5 16 10 3 6 -1 10 -9 10 -9 0 -16
-4 -16 -10z"/>
<path d="M1132 575 c0 -16 2 -22 5 -12 2 9 2 23 0 30 -3 6 -5 -1 -5 -18z"/>
<path d="M943 545 c0 -27 2 -38 4 -22 2 15 2 37 0 50 -2 12 -4 0 -4 -28z"/>
<path d="M1985 580 c3 -5 11 -10 16 -10 6 0 7 5 4 10 -3 6 -11 10 -16 10 -6 0
-7 -4 -4 -10z"/>
<path d="M622 560 c0 -14 2 -19 5 -12 2 6 2 18 0 25 -3 6 -5 1 -5 -13z"/>
<path d="M731 564 c0 -11 3 -14 6 -6 3 7 2 16 -1 19 -3 4 -6 -2 -5 -13z"/>
<path d="M1222 555 c0 -16 2 -22 5 -12 2 9 2 23 0 30 -3 6 -5 -1 -5 -18z"/>
<path d="M1585 570 c3 -5 18 -10 32 -10 32 0 28 5 -10 14 -19 4 -26 3 -22 -4z"/>
<path d="M1461 554 c0 -11 3 -14 6 -6 3 7 2 16 -1 19 -3 4 -6 -2 -5 -13z"/>
<path d="M1860 559 c0 -5 5 -7 10 -4 6 3 10 8 10 11 0 2 -4 4 -10 4 -5 0 -10
-5 -10 -11z"/>
<path d="M2120 559 c12 -8 12 -10 -5 -8 -11 1 -27 1 -35 0 -12 -1 -12 -3 2
-11 21 -13 76 9 56 22 -19 12 -36 9 -18 -3z"/>
<path d="M96 553 c-10 -10 -7 -25 4 -18 6 3 10 -1 10 -9 0 -9 6 -13 14 -10 8
3 12 12 10 19 -6 16 -29 26 -38 18z"/>
<path d="M980 550 c0 -5 5 -10 11 -10 5 0 7 5 4 10 -3 6 -8 10 -11 10 -2 0 -4
-4 -4 -10z"/>
<path d="M1560 550 c0 -5 5 -10 11 -10 5 0 7 5 4 10 -3 6 -8 10 -11 10 -2 0
-4 -4 -4 -10z"/>
<path d="M1688 535 c2 -14 6 -25 8 -25 2 0 4 11 4 25 0 14 -4 25 -9 25 -4 0
-6 -11 -3 -25z"/>
<path d="M2010 545 c0 -8 9 -15 20 -15 11 0 20 2 20 5 0 2 -9 9 -20 15 -16 9
-20 8 -20 -5z"/>
<path d="M1246 534 c-5 -14 -1 -16 22 -11 27 6 29 4 24 -21 -5 -24 -6 -24 -12
-7 -5 15 -10 6 -20 -37 -7 -32 -17 -58 -22 -58 -4 0 -7 -24 -6 -52 l2 -53 3
48 c4 43 6 47 25 41 18 -5 20 -3 16 24 -2 17 -1 29 3 27 3 -3 9 14 13 36 5 29
11 39 20 36 8 -3 17 0 20 8 3 8 -5 16 -22 20 -15 3 -34 8 -43 11 -10 3 -19 -3
-23 -12z"/>
<path d="M1748 543 c7 -3 16 -2 19 1 4 3 -2 6 -13 5 -11 0 -14 -3 -6 -6z"/>
<path d="M2180 540 l-25 -6 24 -7 c28 -7 64 6 40 15 -8 2 -25 2 -39 -2z"/>
<path d="M1190 526 c0 -8 4 -17 9 -20 5 -4 7 3 4 14 -6 23 -13 26 -13 6z"/>
<path d="M1711 524 c0 -11 3 -14 6 -6 3 7 2 16 -1 19 -3 4 -6 -2 -5 -13z"/>
<path d="M496 517 c3 -10 9 -15 12 -12 3 3 0 11 -7 18 -10 9 -11 8 -5 -6z"/>
<path d="M741 478 c0 -32 2 -58 7 -58 4 0 6 19 4 43 -5 70 -10 76 -11 15z"/>
<path d="M853 485 c0 -27 2 -38 4 -22 2 15 2 37 0 50 -2 12 -4 0 -4 -28z"/>
<path d="M1472 510 c0 -14 2 -19 5 -12 2 6 2 18 0 25 -3 6 -5 1 -5 -13z"/>
<path d="M980 504 c0 -8 5 -12 10 -9 6 3 10 10 10 16 0 5 -4 9 -10 9 -5 0 -10
-7 -10 -16z"/>
<path d="M1520 490 c0 -16 4 -30 8 -30 5 0 7 14 4 30 -2 17 -6 30 -8 30 -2 0
-4 -13 -4 -30z"/>
<path d="M1888 432 c6 -133 19 -166 18 -45 -1 104 3 121 26 107 7 -5 25 -9 41
-10 15 -1 32 -2 37 -3 6 0 10 -30 10 -65 0 -36 3 -67 8 -69 4 -3 6 25 5 61 -1
50 0 59 7 37 l8 -30 1 38 c0 20 -2 37 -6 37 -9 0 -108 17 -139 24 -20 4 -20 1
-16 -82z"/>
<path d="M215 501 c-10 -17 12 -21 25 -6 10 12 10 15 -3 15 -9 0 -18 -4 -22
-9z"/>
<path d="M453 490 c-11 -16 -10 -18 1 -14 15 6 30 34 18 34 -4 0 -13 -9 -19
-20z"/>
<path d="M711 494 c0 -11 3 -14 6 -6 3 7 2 16 -1 19 -3 4 -6 -2 -5 -13z"/>
<path d="M1651 494 c0 -11 3 -14 6 -6 3 7 2 16 -1 19 -3 4 -6 -2 -5 -13z"/>
<path d="M2230 497 c0 -10 8 -17 18 -17 9 0 13 4 7 8 -5 4 -13 11 -17 16 -5 5
-8 2 -8 -7z"/>
<path d="M540 490 c0 -6 7 -10 15 -10 8 0 15 2 15 4 0 2 -7 6 -15 10 -8 3 -15
1 -15 -4z"/>
<path d="M691 484 c0 -11 3 -14 6 -6 3 7 2 16 -1 19 -3 4 -6 -2 -5 -13z"/>
<path d="M1082 475 c0 -16 2 -22 5 -12 2 9 2 23 0 30 -3 6 -5 -1 -5 -18z"/>
<path d="M1233 460 c0 -25 2 -35 4 -22 2 12 2 32 0 45 -2 12 -4 2 -4 -23z"/>
<path d="M1190 475 c0 -8 4 -15 10 -15 5 0 7 7 4 15 -4 8 -8 15 -10 15 -2 0
-4 -7 -4 -15z"/>
<path d="M1831 474 c0 -11 3 -14 6 -6 3 7 2 16 -1 19 -3 4 -6 -2 -5 -13z"/>
<path d="M190 469 c0 -7 -11 -8 -30 -4 -17 4 -30 3 -29 -2 4 -21 -2 -33 -16
-33 -8 0 -15 -4 -15 -10 0 -16 32 -11 45 7 17 23 51 26 80 7 14 -9 25 -12 25
-6 0 5 15 7 38 2 34 -6 37 -4 37 16 0 13 -5 20 -12 17 -7 -3 -13 -9 -13 -14 0
-5 -9 -9 -20 -9 -12 0 -20 7 -20 16 0 13 -3 14 -14 5 -10 -9 -16 -8 -26 4 -15
17 -30 20 -30 4z"/>
<path d="M1702 460 c0 -14 2 -19 5 -12 2 6 2 18 0 25 -3 6 -5 1 -5 -13z"/>
<path d="M2065 470 c3 -5 13 -6 22 -3 11 4 14 3 9 -5 -4 -7 -2 -12 3 -12 6 0
11 6 12 13 1 6 5 1 9 -13 l8 -25 1 28 c1 25 -2 27 -35 27 -20 0 -33 -4 -29
-10z"/>
<path d="M470 460 c0 -5 7 -7 15 -4 8 4 15 8 15 10 0 2 -7 4 -15 4 -8 0 -15
-4 -15 -10z"/>
<path d="M540 460 c0 -5 4 -10 9 -10 6 0 13 5 16 10 3 6 -1 10 -9 10 -9 0 -16
-4 -16 -10z"/>
<path d="M1327 452 c-43 -47 9 -116 62 -83 17 11 -1 23 -22 15 -18 -7 -51 36
-38 49 5 5 21 11 35 12 18 2 23 -1 19 -11 -3 -9 -14 -12 -32 -8 -18 5 -23 3
-16 -4 6 -5 25 -13 43 -17 28 -6 32 -4 32 13 0 46 -53 67 -83 34z"/>
<path d="M1581 454 c0 -11 3 -14 6 -6 3 7 2 16 -1 19 -3 4 -6 -2 -5 -13z"/>
<path d="M2155 443 c8 -15 11 -31 8 -37 -3 -6 -3 -8 2 -4 4 4 9 21 10 38 2 23
-1 30 -16 30 -16 0 -17 -2 -4 -27z"/>
<path d="M2245 460 c11 -5 31 -8 45 -8 l25 0 -25 8 c-14 4 -34 8 -45 8 -20 1
-20 1 0 -8z"/>
<path d="M2201 422 c4 -21 13 -110 19 -197 11 -156 20 -212 20 -126 0 52 -20
296 -30 359 0 1 -4 2 -9 2 -5 0 -5 -16 0 -38z"/>
<path d="M520 435 c0 -8 7 -15 15 -15 8 0 15 4 15 9 0 5 -7 11 -15 15 -9 3
-15 0 -15 -9z"/>
<path d="M993 435 c0 -8 4 -12 9 -9 5 3 6 10 3 15 -9 13 -12 11 -12 -6z"/>
<path d="M1421 406 c-14 -56 -14 -56 4 -56 8 0 15 8 15 18 0 23 29 64 40 57
10 -6 2 -65 -11 -79 -10 -11 0 -97 13 -111 7 -7 8 -3 5 10 -3 11 -8 37 -12 59
-5 31 -4 38 8 33 10 -4 17 7 24 38 12 54 6 65 -39 71 -35 4 -36 3 -47 -40z"/>
<path d="M2275 430 c-3 -5 -2 -10 4 -10 5 0 13 5 16 10 3 6 2 10 -4 10 -5 0
-13 -4 -16 -10z"/>
<path d="M2312 410 c0 -19 2 -27 5 -17 2 9 2 25 0 35 -3 9 -5 1 -5 -18z"/>
<path d="M426 418 c6 -9 64 -7 64 2 0 3 -15 6 -34 6 -19 0 -32 -4 -30 -8z"/>
<path d="M592 418 c-14 -14 -16 -28 -3 -28 9 0 24 30 18 36 -2 2 -9 -2 -15 -8z"/>
<path d="M951 414 c0 -11 3 -14 6 -6 3 7 2 16 -1 19 -3 4 -6 -2 -5 -13z"/>
<path d="M1541 411 c-15 -10 -18 -69 -4 -81 4 -4 24 -10 44 -14 l35 -6 10 49
10 49 -29 6 c-39 8 -49 7 -66 -3z m79 -22 c0 -5 -4 -7 -10 -4 -9 6 -14 -9 -13
-41 0 -16 -37 -5 -44 13 -3 7 0 20 7 28 14 17 60 20 60 4z"/>
<path d="M2126 407 c3 -10 9 -15 12 -12 3 3 0 11 -7 18 -10 9 -11 8 -5 -6z"/>
<path d="M178 403 c7 -3 16 -2 19 1 4 3 -2 6 -13 5 -11 0 -14 -3 -6 -6z"/>
<path d="M1766 388 c-12 -39 -12 -111 0 -115 7 -2 14 14 18 37 3 22 10 40 15
40 5 0 8 12 7 28 -4 34 -31 41 -40 10z m21 -20 c-3 -8 -6 -5 -6 6 -1 11 2 17
5 13 3 -3 4 -12 1 -19z"/>
<path d="M2052 368 c-1 -26 -6 -50 -12 -53 -13 -8 -12 -77 1 -135 6 -25 11
-53 12 -62 1 -9 5 -14 9 -12 4 3 7 31 7 62 -1 49 -3 52 -8 22 l-7 -35 -7 40
c-11 62 -8 113 6 117 8 2 10 17 6 53 l-6 50 -1 -47z"/>
<path d="M76 368 c5 -38 11 -45 26 -30 9 9 9 12 0 12 -7 0 -12 11 -12 25 0 14
-4 25 -9 25 -4 0 -7 -14 -5 -32z"/>
<path d="M300 386 c0 -8 -6 -17 -12 -20 -7 -3 -3 -3 10 0 25 6 55 -12 45 -28
-3 -6 0 -9 8 -6 8 3 19 -2 25 -10 7 -9 16 -12 24 -7 9 6 2 14 -24 27 -22 11
-34 23 -30 30 4 6 3 8 -3 5 -6 -4 -13 0 -17 8 -7 19 -26 20 -26 1z"/>
<path d="M472 384 c13 -15 15 -23 7 -31 -9 -9 -3 -14 22 -21 37 -10 52 -6 29
8 -12 8 -12 10 3 16 9 3 23 1 31 -5 8 -7 18 -11 22 -9 5 1 19 -2 32 -6 27 -9
35 -5 27 16 -4 10 -15 13 -31 10 -15 -3 -32 2 -44 13 -11 10 -20 13 -20 8 0
-23 -35 -23 -64 -2 -27 19 -29 20 -14 3z"/>
<path d="M1090 389 c0 -5 5 -7 10 -4 6 3 10 8 10 11 0 2 -4 4 -10 4 -5 0 -10
-5 -10 -11z"/>
<path d="M1202 370 c0 -19 2 -27 5 -17 2 9 2 25 0 35 -3 9 -5 1 -5 -18z"/>
<path d="M1644 350 c-10 -45 -9 -50 8 -50 12 0 18 7 18 24 0 14 8 32 18 42 16
17 17 17 20 -4 2 -12 -3 -34 -10 -50 -13 -25 -13 -27 8 -28 19 -2 23 5 29 43
8 52 3 58 -46 67 l-35 6 -10 -50z"/>
<path d="M130 380 c-9 -6 -10 -10 -3 -10 6 0 15 5 18 10 8 12 4 12 -15 0z"/>
<path d="M2115 370 c-3 -6 1 -7 9 -4 18 7 21 14 7 14 -6 0 -13 -4 -16 -10z"/>
<path d="M447 363 c-4 -3 -7 -13 -7 -22 1 -13 3 -13 11 2 11 19 8 33 -4 20z"/>
<path d="M863 320 c0 -30 2 -43 4 -27 2 15 2 39 0 55 -2 15 -4 2 -4 -28z"/>
<path d="M1092 350 c0 -14 2 -19 5 -12 2 6 2 18 0 25 -3 6 -5 1 -5 -13z"/>
<path d="M2296 355 c-9 -26 -7 -32 5 -12 6 10 9 21 6 23 -2 3 -7 -2 -11 -11z"/>
<path d="M930 345 c0 -13 45 -27 283 -86 l127 -31 0 -114 c0 -69 4 -114 10
-114 6 0 10 17 10 38 0 24 3 32 9 23 5 -7 6 -21 4 -31 -3 -10 0 -21 6 -24 8
-5 11 21 11 86 -1 82 -2 90 -14 69 -11 -19 -14 -21 -19 -7 -4 10 2 21 16 31
32 20 92 9 427 -77 375 -97 420 -107 426 -97 7 12 44 2 -551 155 -291 74 -578
148 -637 164 -81 21 -108 25 -108 15z"/>
<path d="M1830 310 c0 -27 3 -50 8 -50 4 0 7 23 7 50 0 28 -3 50 -7 50 -5 0
-8 -22 -8 -50z"/>
<path d="M1361 334 c0 -11 3 -14 6 -6 3 7 2 16 -1 19 -3 4 -6 -2 -5 -13z"/>
<path d="M298 323 c-10 -2 -18 -9 -18 -15 0 -5 7 -7 16 -4 9 3 20 6 25 6 5 0
9 5 9 10 0 10 -3 11 -32 3z"/>
<path d="M899 323 c0 -5 -3 -33 -5 -63 -7 -70 11 -56 21 18 5 35 3 52 -4 52
-6 0 -11 -3 -12 -7z"/>
<path d="M54 304 c-18 -15 -18 -15 5 -8 18 5 22 3 15 -7 -6 -12 -5 -12 9 0 9
7 17 17 17 22 0 14 -24 10 -46 -7z"/>
<path d="M420 316 c0 -4 59 -36 67 -36 13 0 -2 19 -22 28 -27 12 -45 15 -45 8z"/>
<path d="M2286 289 c-8 -42 0 -50 9 -9 4 17 5 34 2 36 -2 3 -7 -10 -11 -27z"/>
<path d="M577 304 c-8 -8 1 -24 14 -24 5 0 9 7 9 15 0 15 -12 20 -23 9z"/>
<path d="M2250 286 c0 -14 4 -27 8 -30 5 -3 6 8 4 25 -5 35 -12 38 -12 5z"/>
<path d="M248 293 c7 -3 16 -2 19 1 4 3 -2 6 -13 5 -11 0 -14 -3 -6 -6z"/>
<path d="M1406 285 c4 -8 8 -15 10 -15 2 0 4 7 4 15 0 8 -4 15 -10 15 -5 0 -7
-7 -4 -15z"/>
<path d="M2135 290 c3 -5 8 -10 11 -10 2 0 4 5 4 10 0 6 -5 10 -11 10 -5 0 -7
-4 -4 -10z"/>
<path d="M1365 280 c3 -5 8 -10 11 -10 2 0 4 5 4 10 0 6 -5 10 -11 10 -5 0 -7
-4 -4 -10z"/>
<path d="M408 273 c7 -3 16 -2 19 1 4 3 -2 6 -13 5 -11 0 -14 -3 -6 -6z"/>
<path d="M1902 255 c0 -16 2 -22 5 -12 2 9 2 23 0 30 -3 6 -5 -1 -5 -18z"/>
<path d="M323 263 c9 -2 17 -9 17 -15 0 -5 6 -8 13 -5 6 2 17 -3 24 -12 7 -9
13 -11 13 -5 0 17 -24 33 -56 38 -16 2 -21 1 -11 -1z"/>
<path d="M1540 245 c0 -14 4 -25 9 -25 4 0 6 11 3 25 -2 14 -6 25 -8 25 -2 0
-4 -11 -4 -25z"/>
<path d="M2062 250 c0 -14 2 -19 5 -12 2 6 2 18 0 25 -3 6 -5 1 -5 -13z"/>
<path d="M1511 244 c0 -11 3 -14 6 -6 3 7 2 16 -1 19 -3 4 -6 -2 -5 -13z"/>
<path d="M1752 240 c0 -14 2 -19 5 -12 2 6 2 18 0 25 -3 6 -5 1 -5 -13z"/>
<path d="M2142 245 c0 -11 4 -31 8 -45 l8 -25 0 25 c0 14 -3 34 -8 45 -9 20
-9 20 -8 0z"/>
<path d="M1040 241 c0 -3 16 -11 35 -17 29 -9 37 -8 48 4 6 9 7 13 1 10 -5 -4
-27 -3 -47 2 -20 4 -37 5 -37 1z"/>
<path d="M406 225 c-4 -12 -1 -16 11 -13 18 3 21 20 5 26 -5 1 -12 -4 -16 -13z"/>
<path d="M535 221 c-3 -5 -2 -12 3 -15 5 -3 9 1 9 9 0 17 -3 19 -12 6z"/>
<path d="M1702 210 c0 -14 2 -19 5 -12 2 6 2 18 0 25 -3 6 -5 1 -5 -13z"/>
<path d="M1841 214 c0 -11 3 -14 6 -6 3 7 2 16 -1 19 -3 4 -6 -2 -5 -13z"/>
<path d="M1908 215 c-6 -6 1 -77 8 -84 3 -3 4 16 3 42 -2 26 -3 47 -4 47 -1 0
-4 -2 -7 -5z"/>
<path d="M116 198 c2 -3 -2 -9 -8 -11 -7 -3 -2 -5 12 -6 23 0 72 16 60 19 -17
5 -67 4 -64 -2z"/>
<path d="M1000 206 c0 -2 7 -7 16 -10 8 -3 12 -2 9 4 -6 10 -25 14 -25 6z"/>
<path d="M1742 190 c0 -14 2 -19 5 -12 2 6 2 18 0 25 -3 6 -5 1 -5 -13z"/>
<path d="M1761 194 c0 -11 3 -14 6 -6 3 7 2 16 -1 19 -3 4 -6 -2 -5 -13z"/>
<path d="M330 185 c-7 -9 -10 -18 -7 -21 3 -3 10 4 17 15 13 25 8 27 -10 6z"/>
<path d="M760 185 c0 -9 6 -12 15 -9 8 4 12 10 9 15 -8 14 -24 10 -24 -6z"/>
<path d="M1115 170 c-3 -5 1 -10 10 -10 9 0 13 5 10 10 -3 6 -8 10 -10 10 -2
0 -7 -4 -10 -10z"/>
<path d="M2113 130 c0 -30 2 -43 4 -28 2 16 2 40 0 55 -2 16 -4 3 -4 -27z"/>
<path d="M365 160 c-4 -6 11 -10 41 -10 54 0 55 4 2 14 -21 4 -39 2 -43 -4z"/>
<path d="M2152 145 c0 -16 2 -22 5 -12 2 9 2 23 0 30 -3 6 -5 -1 -5 -18z"/>
<path d="M1491 144 c0 -11 3 -14 6 -6 3 7 2 16 -1 19 -3 4 -6 -2 -5 -13z"/>
<path d="M1522 135 c0 -16 2 -22 5 -12 2 9 2 23 0 30 -3 6 -5 -1 -5 -18z"/>
<path d="M585 126 c-16 -13 -36 -22 -45 -19 -13 4 -13 4 0 -6 21 -15 40 -13
40 4 0 8 9 15 20 15 11 0 20 4 20 9 0 6 17 12 38 14 l37 4 -40 1 c-29 1 -48
-5 -70 -22z"/>
<path d="M710 148 c-7 -21 -4 -34 8 -47 7 -7 14 -12 15 -10 2 2 8 11 15 20 10
14 10 18 -3 23 -9 3 -13 2 -10 -4 3 -6 2 -10 -4 -10 -5 0 -12 8 -14 18 -3 9
-6 14 -7 10z"/>
<path d="M2131 134 c0 -11 3 -14 6 -6 3 7 2 16 -1 19 -3 4 -6 -2 -5 -13z"/>
<path d="M2192 120 c0 -19 2 -27 5 -17 2 9 2 25 0 35 -3 9 -5 1 -5 -18z"/>
<path d="M785 119 c-20 -9 -20 -9 1 -6 11 1 33 -6 48 -16 37 -24 44 -15 10 12
-30 23 -31 23 -59 10z"/>
<path d="M280 116 c0 -2 7 -7 16 -10 8 -3 12 -2 9 4 -6 10 -25 14 -25 6z"/>
<path d="M880 100 c0 -5 5 -10 11 -10 5 0 7 5 4 10 -3 6 -8 10 -11 10 -2 0 -4
-4 -4 -10z"/>
<path d="M1501 80 c-1 -42 8 -80 19 -80 11 0 19 83 9 95 -6 5 -9 3 -10 -5 0
-10 -4 -7 -9 5 -7 16 -9 14 -9 -15z"/>
<path d="M1600 103 c0 -5 14 -8 30 -9 17 -1 39 -9 50 -19 16 -15 20 -15 20 -3
0 9 -16 20 -39 26 -45 14 -61 15 -61 5z"/>
<path d="M1246 87 l-30 -13 42 0 c33 0 39 2 30 13 -6 7 -11 13 -12 13 0 -1
-14 -7 -30 -13z"/>
<path d="M1093 83 c-16 -6 -17 -33 -2 -33 5 0 7 5 4 10 -4 6 7 10 24 10 17 0
31 5 31 10 0 10 -35 12 -57 3z"/>
<path d="M1730 79 c0 -5 9 -9 20 -9 11 0 20 2 20 4 0 2 -9 6 -20 9 -11 3 -20
1 -20 -4z"/>
<path d="M600 69 c0 -11 40 -12 57 -1 8 5 -1 8 -22 9 -19 1 -35 -3 -35 -8z"/>
<path d="M1178 73 c6 -2 18 -2 25 0 6 3 1 5 -13 5 -14 0 -19 -2 -12 -5z"/>
<path d="M705 50 c-3 -5 1 -10 10 -10 9 0 13 5 10 10 -3 6 -8 10 -10 10 -2 0
-7 -4 -10 -10z"/>
<path d="M1615 50 c4 -6 11 -8 16 -5 14 9 11 15 -7 15 -8 0 -12 -5 -9 -10z"/>
<path d="M1820 50 c-13 -8 -12 -10 3 -10 9 0 17 5 17 10 0 12 -1 12 -20 0z"/>
<path d="M1870 46 c0 -2 9 -6 20 -9 11 -3 18 -1 14 4 -5 9 -34 13 -34 5z"/>
</g>
</svg>
